<?xml version="1.0" standalone="no"?>
<!DOCTYPE svg PUBLIC "-//W3C//DTD SVG 1.1//EN" "http://www.w3.org/Graphics/SVG/1.1/DTD/svg11.dtd">
<!--Generator: Xara Designer (www.xara.com), SVG filter version: 6.3.0.31-->
<svg fill="none" fill-rule="evenodd" stroke="black" stroke-width="0.501" stroke-linejoin="bevel" stroke-miterlimit="10" font-family="Times New Roman" font-size="16" style="font-variant-ligatures:none" xmlns:xlink="http://www.w3.org/1999/xlink" xmlns="http://www.w3.org/2000/svg" version="1.1" overflow="visible" width="75pt" height="75pt" viewBox="0 -75 75 75">
 <defs>
	</defs>
 <g id="Layer 1" transform="scale(1 -1)">
  <g id="Group" stroke-linejoin="miter" stroke="none" fill="#0d2644">
   <g id="Group_1">
    <rect x="-1.499" y="-12.749" width="2.998" height="25.499" rx="14.0429806565902" ry="14.0429806565902" transform="translate(35.814 53.583) rotate(103.584)"/>
    <path d="M 33.099,55.24 L 32.879,56.148 C 32.806,56.451 33.116,56.787 33.571,56.897 L 36.295,57.556 C 36.749,57.666 37.18,57.509 37.253,57.205 L 37.472,56.298 L 33.099,55.24 Z" marker-start="none" marker-end="none"/>
   </g>
   <path d="M 47.614,20.25 L 27.501,20.308 C 27.266,20.308 27.059,20.442 26.902,20.825 L 24.748,46.675 C 24.801,46.975 25.02,47.178 25.466,47.25 L 49.589,47.25 C 49.988,47.197 50.245,47.033 50.248,46.675 L 48.153,20.825 C 48.06,20.506 47.865,20.339 47.614,20.25 Z M 38.63,25.182 L 38.63,42.319 C 38.63,42.97 38.126,43.5 37.505,43.5 L 37.504,43.5 C 36.883,43.5 36.379,42.97 36.379,42.319 L 36.379,25.182 C 36.379,24.531 36.883,24.001 37.504,24.001 L 37.505,24.001 C 38.126,24.001 38.63,24.531 38.63,25.182 Z M 31.881,24.018 L 31.882,24.018 C 32.502,24.056 32.974,24.615 32.935,25.265 L 31.909,42.371 C 31.87,43.021 31.336,43.52 30.716,43.483 L 30.715,43.482 C 30.095,43.445 29.623,42.886 29.662,42.236 L 30.688,25.13 C 30.727,24.48 31.261,23.981 31.881,24.018 Z M 44.271,25.13 L 45.297,42.236 C 45.336,42.886 44.864,43.445 44.244,43.482 L 44.243,43.483 C 43.623,43.52 43.089,43.021 43.05,42.371 L 42.024,25.265 C 41.985,24.615 42.457,24.056 43.077,24.018 L 43.078,24.018 C 43.698,23.981 44.232,24.48 44.271,25.13 Z" marker-start="none" marker-end="none"/>
  </g>
 </g>
</svg>
