<?xml version="1.0" standalone="no"?>
<!DOCTYPE svg PUBLIC "-//W3C//DTD SVG 1.1//EN" "http://www.w3.org/Graphics/SVG/1.1/DTD/svg11.dtd">
<!--Generator: Xara Designer (www.xara.com), SVG filter version: 6.3.0.23-->
<svg fill="none" fill-rule="evenodd" stroke="black" stroke-width="0.501" stroke-linejoin="bevel" stroke-miterlimit="10" font-family="Times New Roman" font-size="16" style="font-variant-ligatures:none" xmlns:xlink="http://www.w3.org/1999/xlink" xmlns="http://www.w3.org/2000/svg" version="1.1" overflow="visible" width="450pt" height="450pt" viewBox="0 -450 450 450">
 <defs>
	</defs>
 <g id="Layer 1" transform="scale(1 -1)">
  <g id="Group" stroke-linejoin="miter" stroke-linecap="round" stroke="none">
   <path d="M 442.317,79.474 L 376.533,193.417 C 360.949,220.407 335.654,264.222 320.073,291.212 L 254.286,405.155 C 238.706,432.145 213.41,432.145 197.826,405.155 L 132.042,291.216 C 116.458,264.226 91.163,220.41 75.579,193.421 L 9.795,79.477 C -5.789,52.488 6.859,30.58 38.023,30.58 L 169.594,30.576 C 200.758,30.576 251.35,30.576 282.518,30.576 L 414.085,30.576 C 445.253,30.576 457.901,52.484 442.317,79.474 Z" fill="#ff8200" stroke-width="41.847" marker-start="none" marker-end="none"/>
   <path d="M 226.152,332.21 C 244.741,332.515 263.021,320.255 261.272,246.575 C 254.92,171.835 247.628,160.14 229.038,159.835 C 210.449,159.529 202.268,171.835 193.918,245.47 C 192.818,320.255 207.562,331.905 226.152,332.21 Z" fill="#ffffff" stroke-width="31.199" marker-start="none" marker-end="none"/>
   <path d="M 232.354,137.829 C 250.449,136.641 264.173,120.99 262.984,102.895 C 261.796,84.8 246.145,71.076 228.05,72.265 C 209.955,73.453 196.231,89.104 197.42,107.199 C 198.608,125.294 214.259,139.018 232.354,137.829 Z" fill="#ffffff" stroke-width="33.493" marker-start="none" marker-end="none"/>
  </g>
 </g>
</svg>
